<svg width="101" height="101" viewBox="0 0 101 101" fill="none" xmlns="http://www.w3.org/2000/svg">
<path d="M49.001 10.408C27.17 10.408 9.409 28.169 9.409 50C9.409 71.831 27.17 89.591 49.001 89.591C70.832 89.591 88.592 71.83 88.592 50C88.592 28.168 70.832 10.408 49.001 10.408ZM49.001 86.591C28.824 86.591 12.409 70.176 12.409 50C12.409 29.823 28.824 13.408 49.001 13.408C69.178 13.408 85.592 29.823 85.592 50C85.592 70.176 69.178 86.591 49.001 86.591Z" fill="black"/>
<path d="M65.209 56.228H32.796C31.967 56.228 31.296 56.899 31.296 57.728C31.296 67.491 39.238 75.434 49.001 75.434C58.765 75.434 66.709 67.491 66.709 57.728C66.709 56.899 66.038 56.228 65.209 56.228ZM49.001 72.434C41.399 72.434 35.126 66.635 34.372 59.228H63.633C62.879 66.635 56.605 72.434 49.001 72.434Z" fill="black"/>
<path d="M39.595 38.176C39.595 34.506 36.609 31.521 32.938 31.521C29.269 31.521 26.284 34.506 26.284 38.176C26.284 41.847 29.269 44.833 32.938 44.833C36.608 44.833 39.595 41.847 39.595 38.176ZM29.284 38.176C29.284 36.16 30.923 34.521 32.938 34.521C34.955 34.521 36.595 36.161 36.595 38.176C36.595 40.193 34.954 41.833 32.938 41.833C30.923 41.833 29.284 40.193 29.284 38.176Z" fill="black"/>
<path d="M64.328 31.521C60.657 31.521 57.671 34.506 57.671 38.176C57.671 41.847 60.657 44.833 64.328 44.833C67.999 44.833 70.985 41.847 70.985 38.176C70.985 34.506 67.999 31.521 64.328 31.521ZM64.328 41.833C62.311 41.833 60.671 40.192 60.671 38.176C60.671 36.16 62.312 34.521 64.328 34.521C66.344 34.521 67.985 36.161 67.985 38.176C67.985 40.193 66.344 41.833 64.328 41.833Z" fill="black"/>
</svg>
