<svg width="101" height="101" viewBox="0 0 101 101" fill="none" xmlns="http://www.w3.org/2000/svg">
<path d="M88.853 76.777L54.048 13.21C53.119 11.514 51.419 10.501 49.5 10.501C47.581 10.501 45.881 11.514 44.952 13.21L10.147 76.777C9.25099 78.413 9.28399 80.348 10.235 81.953C11.18 83.548 12.847 84.5 14.696 84.5H84.303C86.152 84.5 87.819 83.548 88.764 81.953C89.716 80.349 89.749 78.413 88.853 76.777ZM86.184 80.424C85.779 81.108 85.094 81.5 84.304 81.5H14.697C13.907 81.5 13.222 81.108 12.817 80.424C12.412 79.74 12.397 78.915 12.779 78.217L47.584 14.65C47.979 13.93 48.695 13.5 49.501 13.5C50.307 13.5 51.023 13.93 51.418 14.65L86.223 78.217C86.604 78.915 86.589 79.74 86.184 80.424Z" fill="black"/>
<path d="M51.9847 69.6094C52.0641 68.231 51.0111 67.0493 49.6327 66.9699C48.2544 66.8905 47.0726 67.9435 46.9932 69.3219C46.9138 70.7002 47.9669 71.882 49.3452 71.9614C50.7236 72.0408 51.9053 70.9877 51.9847 69.6094Z" fill="black"/>
<path d="M49.5 59.5C50.328 59.5 51 58.829 51 58V34C51 33.171 50.328 32.5 49.5 32.5C48.672 32.5 48 33.171 48 34V58C48 58.829 48.672 59.5 49.5 59.5Z" fill="black"/>
</svg>
