<svg width="101" height="101" viewBox="0 0 101 101" fill="none" xmlns="http://www.w3.org/2000/svg">
<path d="M49.936 52.438C37.072 52.438 26.606 62.904 26.606 75.767V77.223H73.265V75.767C73.265 62.904 62.799 52.438 49.936 52.438ZM29.568 74.312C30.317 63.73 39.166 55.349 49.935 55.349C60.704 55.349 69.553 63.729 70.302 74.312H29.568Z" fill="black"/>
<path d="M49.552 50.0519C57.073 50.0519 63.191 43.9329 63.191 36.4129C63.191 28.8929 57.072 22.7759 49.552 22.7759C42.033 22.7759 35.916 28.8939 35.916 36.4129C35.917 43.9329 42.034 50.0519 49.552 50.0519ZM49.552 25.6869C55.467 25.6869 60.28 30.4989 60.28 36.4129C60.28 42.3279 55.467 47.1409 49.552 47.1409C43.638 47.1409 38.827 42.3279 38.827 36.4129C38.828 30.4989 43.638 25.6869 49.552 25.6869Z" fill="black"/>
<path d="M18.744 60.9618C21.386 60.9618 23.981 61.6668 26.249 63.0008L27.725 60.4918C25.01 58.8948 21.904 58.0508 18.744 58.0508C8.97501 58.0508 1.02802 65.9978 1.02802 75.7678V77.2238H22.705V74.3128H4.01002C4.74302 66.8278 11.072 60.9618 18.744 60.9618Z" fill="black"/>
<path d="M18.461 55.2239C24.258 55.2239 28.974 50.509 28.974 44.713C28.974 38.916 24.258 34.2 18.461 34.2C12.666 34.2 7.95203 38.916 7.95203 44.713C7.95103 50.509 12.666 55.2239 18.461 55.2239ZM18.461 37.111C22.653 37.111 26.063 40.521 26.063 44.713C26.063 48.904 22.653 52.313 18.461 52.313C14.271 52.313 10.863 48.904 10.863 44.713C10.862 40.521 14.271 37.111 18.461 37.111Z" fill="black"/>
<path d="M81.256 58.0508C78.096 58.0508 74.99 58.8948 72.275 60.4918L73.75 63.0008C76.018 61.6668 78.613 60.9618 81.255 60.9618C88.928 60.9618 95.256 66.8288 95.989 74.3118H77.298V77.2228H98.971V75.7668C98.972 65.9978 91.025 58.0508 81.256 58.0508Z" fill="black"/>
<path d="M81.54 55.2239C87.337 55.2239 92.053 50.509 92.053 44.713C92.053 38.916 87.337 34.2 81.54 34.2C75.745 34.2 71.031 38.916 71.031 44.713C71.031 50.509 75.745 55.2239 81.54 55.2239ZM81.54 37.111C85.732 37.111 89.142 40.521 89.142 44.713C89.142 48.904 85.732 52.313 81.54 52.313C77.35 52.313 73.942 48.904 73.942 44.713C73.942 40.521 77.35 37.111 81.54 37.111Z" fill="black"/>
</svg>
